<?xml version="1.0" encoding="UTF-8"?><svg id="Layer_2" xmlns="http://www.w3.org/2000/svg" viewBox="0 0 325.06 542.01"><g id="Art"><path d="M316.06,6c1.65,0,3,1.35,3,3v524.01c0,1.65-1.35,3-3,3H9c-1.65,0-3-1.35-3-3V9c0-1.65,1.35-3,3-3h307.06M316.06,0H9C4.03,0,0,4.03,0,9v524.01c0,4.97,4.03,9,9,9h307.06c4.97,0,9-4.03,9-9V9c0-4.97-4.03-9-9-9h0Z"/><path d="M199.64,383.95h-10.08l5.05-13.86,5.03,13.86ZM246.83,376.23v-6.54h15.82v-6.18h-22.98v32.1h22.98v-6.2h-15.82v-7.04h15.48v-6.15h-15.48ZM218.35,369.82v25.8h7.11v-25.8h9.28v-6.31h-25.82v6.31h9.43ZM177.78,395.62h7.82l2.01-5.47h13.81l2.03,5.47h7.82l-12.4-31.97v-.13h-8.78l-12.3,32.1ZM155.81,383.09l-7.61-19.44v-.13h-9.82v32.34h7.22v-22.1l8.65,21.99h3.28l8.7-22.1v22.1h7.11v-32.1h-9.88l-7.66,19.44ZM105.47,389.31v-25.8h-7.14v32.23h20.66v-6.31l-13.52-.13ZM123.35,395.62h7.14v-32.1h-7.14v32.1ZM79.02,362.89h-.02c-9.17,0-16.59,7.44-16.59,16.61,0,9.17,7.44,16.59,16.61,16.59,5.7.23,11.03-2.8,13.76-7.82v-.16l-6.18-2.97v.16c-1.48,2.82-4.42,4.57-7.61,4.51-5.09-.36-9.15-4.42-9.51-9.51-.4-5.66,3.85-10.57,9.51-10.97,3.17-.01,6.09,1.72,7.61,4.51v.16l6.18-3v-.18c-2.73-5.01-8.06-8.04-13.76-7.82v-.1Z"/><path d="M123.17,327.43h-11.13v-5.99h30.09v5.99h-11.17v26.17h-7.79v-26.17Z"/><path d="M148.12,321.44h7.79v12.88h14.41v-12.88h7.84v32.16h-7.84v-13.33h-14.41v13.33h-7.79v-32.16Z"/><path d="M186.1,353.6v-32.16h24.32v5.99h-16.71v7.03h14.73v5.99h-14.73v7.12h17.03v6.04h-24.64Z"/><path d="M141.62,405.66h-8.16l-11.7,31.89h7.43l1.85-5.47h13.03l1.88,5.47h7.19l-11.52-31.89ZM132.84,426l4.72-13.84,4.66,13.84h-9.38Z"/><polygon points="208.8 418.19 208.8 424.34 194.45 424.34 194.45 431.32 209.12 431.32 209.12 437.52 187.78 437.52 187.78 405.39 209.12 405.39 209.12 411.52 194.45 411.52 194.45 418.06 208.8 418.19"/><polygon points="235.17 437.55 215.94 437.55 215.94 405.39 222.58 405.39 222.58 431.11 235.14 431.11 235.17 437.55"/><polygon points="117.56 437.55 98.33 437.55 98.33 405.39 104.98 405.39 104.98 431.11 117.54 431.11 117.56 437.55"/><path d="M157.07,437.55v-32.11h12.91c7.51,0,12.14,2.77,12.14,8.69,0,3.16-2.78,6.25-5.39,6.67,3.77.31,6.7,3.89,6.7,7.62,0,6.03-4.85,9.13-12.27,9.13h-14.08ZM169.93,418.16c4,0,5.75-1.28,5.75-3.74s-1.8-3.49-5.71-3.49h-6.22v7.23h6.17ZM163.76,432.04h6.94c4.14,0,6.14-1.56,6.14-4.12s-2.05-4.12-6.19-4.12h-6.89v8.24Z"/><path d="M272.76,110.57c3.53,8.67-.6,18.56-9.24,22.14l-38.09,15.64-.4-.98c-3.55-8.67.59-18.57,9.24-22.14l38.07-15.64.43.98Z"/><path d="M242.69,71.52l.78.78c6.59,6.63,6.59,17.33,0,23.96l-29.11,29.11-.75-.78c-6.62-6.61-6.62-17.33-.01-23.94,0,0,0,0,.01-.01l29.08-29.11Z"/><path d="M185.51,86.15l15.84-37.98,1.01.4c8.62,3.64,12.69,13.56,9.1,22.2l-15.84,37.95-.98-.4c-8.64-3.6-12.73-13.53-9.13-22.17Z"/><path d="M70.33,83.67c6.6-6.62,17.32-6.64,23.94-.04.01.01.03.03.04.04l29.08,29.08-.75.75c-6.6,6.62-17.32,6.64-23.94.04-.01-.01-.03-.03-.04-.04l-29.08-29.08.75-.75Z"/><path d="M46.52,124.65c3.59-8.64,13.49-12.73,22.13-9.15.01,0,.03.01.04.02l38.09,15.87-.4.98c-1.73,4.15-5.03,7.44-9.19,9.16-2.05.83-4.24,1.26-6.45,1.27-2.25,0-4.47-.45-6.54-1.32l-37.98-15.84.29-.98Z"/><path d="M40.13,172.53c.02-9.36,7.6-16.93,16.96-16.93h41.06v1.07c-.03,9.35-7.61,16.93-16.96,16.96h-41.06v-1.09Z"/><path d="M52.34,218.6c-3.55-8.67.59-18.57,9.24-22.14l38.04-15.64.4,1.01c3.55,8.65-.57,18.54-9.21,22.11l-38.07,15.38-.4-.72Z"/><path d="M82.34,257.39l-.75-.78c-6.62-6.61-6.62-17.33-.01-23.94,0,0,0,0,.01-.01l29.08-29.11.78.78c6.59,6.63,6.59,17.33,0,23.96l-29.11,29.11Z"/><path d="M139.55,242.99l-15.87,37.89-.98-.4c-8.63-3.6-12.71-13.51-9.11-22.14,0,0,0-.02.01-.03l15.84-37.98.98.4c8.64,3.62,12.73,13.55,9.13,22.2v.06Z"/><path d="M145.31,101.9c-2.04.85-4.24,1.29-6.45,1.3-2.24-.01-4.46-.46-6.54-1.32-4.16-1.73-7.45-5.05-9.16-9.21l-15.52-37.98.98-.4c8.66-3.57,18.57.56,22.14,9.21l15.64,38.07-1.09.35Z"/><path d="M171.43,286.82h-1.07c-9.36-.02-16.94-7.6-16.96-16.96v-41.09h1.07c9.37,0,16.96,7.59,16.96,16.96h0v41.09Z"/><path d="M171.43,100.09h-1.07c-9.27-.06-16.77-7.55-16.84-16.82v-41.2h1.07c9.36,0,16.94,7.58,16.96,16.93l-.12,41.09Z"/><path d="M216.29,274.58c-2.04.85-4.24,1.29-6.45,1.3-2.24,0-4.45-.45-6.51-1.32-4.16-1.71-7.46-5.02-9.16-9.19l-15.4-38.12.98-.4c8.65-3.52,18.51.64,22.03,9.28,0,.02.02.05.03.07l15.66,38.04-1.18.35Z"/><path d="M254.7,245.38c-6.6,6.62-17.32,6.64-23.94.04-.01-.01-.03-.03-.04-.04l-29.08-29.08.75-.75c6.6-6.62,17.32-6.64,23.94-.04.01.01.03.03.04.04l29.08,28.97-.75.86Z"/><path d="M278.54,204.21c-2.63,6.32-8.82,10.44-15.66,10.42-2.18,0-4.34-.41-6.36-1.24l-38.12-15.87.43-.98c3.62-8.63,13.54-12.7,22.17-9.1l37.95,15.84-.4.92Z"/><path d="M284.94,156.47c.02,9.36-7.54,16.97-16.9,17.02h-41.2v-.95c.02-9.36,7.6-16.93,16.96-16.93h41.15v.86Z"/><path d="M66.45,494.88c-2.27,3.36-5.45,5.06-9.46,5.06-6.92,0-12.15-5.29-12.15-12.32s5.22-12.32,12.15-12.32c4.05,0,7.24,1.71,9.46,5.07l.51.78-4.33,2.31-.42-.67c-1.08-1.74-3.09-2.82-5.23-2.82-4.09,0-7.05,3.22-7.05,7.67s2.96,7.67,7.05,7.67c2.14,0,4.15-1.08,5.23-2.83l.42-.67,4.34,2.31-.53.78Z"/><polygon points="94.62 480.29 83.12 480.29 83.12 485.08 94.39 485.08 94.39 489.7 83.12 489.7 83.12 494.92 94.62 494.92 94.62 499.54 78.12 499.54 78.12 475.67 94.62 475.67 94.62 480.29"/><polygon points="154.16 480.29 147.35 480.29 147.35 499.54 142.36 499.54 142.36 480.29 135.52 480.29 135.52 475.67 154.16 475.67 154.16 480.29"/><rect x="165.81" y="475.67" width="5" height="23.87"/><polygon points="200.45 480.29 188.95 480.29 188.95 485.08 200.22 485.08 200.22 489.7 188.95 489.7 188.95 499.54 183.95 499.54 183.95 475.67 200.45 475.67 200.45 480.29"/><rect x="212.24" y="475.67" width="5" height="23.87"/><polygon points="246.87 480.29 235.37 480.29 235.37 485.08 246.64 485.08 246.64 489.7 235.37 489.7 235.37 494.92 246.87 494.92 246.87 499.54 230.38 499.54 230.38 475.67 246.87 475.67 246.87 480.29"/><path d="M120.05,490.38c2.63-.82,4.97-3.16,4.97-7.05,0-4.51-3.26-7.66-7.92-7.66h-10.13v23.87h5v-8.55h2.81l5.25,8.55h5.85l-5.83-9.16ZM116.67,486.38h-4.71v-6.09h4.71c1.94,0,3.25,1.22,3.25,3.04s-1.31,3.04-3.25,3.04Z"/><path d="M267.93,475.67h-8.71v23.87h8.71c7.23,0,12.28-4.9,12.28-11.92s-5.05-11.95-12.28-11.95ZM267.93,494.92h-3.71v-14.63h3.71c4.36,0,7.18,2.88,7.18,7.33,0,3.63-2.22,7.3-7.18,7.3Z"/><rect x="44.85" y="455.41" width="235.37" height="4.1"/></g></svg>